<svg id="Layer_1" data-name="Layer 1" xmlns="http://www.w3.org/2000/svg" viewBox="0 0 1200 1200"><defs><style>.cls-1,.cls-5{fill:#fff;}.cls-2{font-size:100px;letter-spacing:0.06em;}.cls-3{font-size:300px;}.cls-2,.cls-3,.cls-4{font-family:SegoeUI, Segoe UI;}.cls-4{font-size:84px;}.cls-5{stroke:#363636;stroke-width:14px;}.cls-10,.cls-5,.cls-7,.cls-9{stroke-miterlimit:10;}.cls-6{fill:#333;}.cls-7{fill:#faa31b;}.cls-10,.cls-7,.cls-9{stroke:#58595b;stroke-width:2px;}.cls-8{fill:#1a1a1a;}.cls-9{fill:#ed1c24;}.cls-10{fill:#45b649;}</style></defs><title>405Logo_storm</title><rect class="cls-1" x="153" y="258.5" width="880" height="880"/><path d="M1023,268.5v860H163v-860h860m20-20H143v900h900v-900Z"/><text class="cls-2" transform="translate(200.72 386.89)">405</text><text class="cls-3" transform="translate(322 807.75)">PDR</text><text class="cls-4" transform="translate(272.83 1091.68)">hail. dents. dings.</text><path id="Cloud" class="cls-5" d="M932.77,134.48a110.08,110.08,0,0,0-39.89,7.46A91.18,91.18,0,0,0,714,166.85c0,1.36,0,2.72.1,4.07a92.29,92.29,0,0,0,.79,184.58H932.77a110.51,110.51,0,0,0,0-221Z"/><path class="cls-6" d="M862.66,433.89A126.76,126.76,0,0,0,906,380.09a127,127,0,0,0-43.38,53.8Z"/><rect class="cls-7" x="806.7" y="449.35" width="52.35" height="52.35" rx="7.81" ry="7.81" transform="translate(417.5 1339.98) rotate(-94.06)"/><path class="cls-6" d="M713.85,527.92a570.78,570.78,0,0,0,85-120.78,570.78,570.78,0,0,0-85,120.78Z"/><polygon class="cls-8" points="689.2 640.72 756.42 620.47 704.46 608.19 738.62 555.44 670.68 574.98 664.67 530.24 629.69 582.19 629.69 582.19 657.26 562.39 660.8 588.75 712.72 573.82 686.54 614.06 717.16 621.29 689.2 640.72 689.2 640.72"/><ellipse class="cls-1" cx="661" cy="611" rx="26" ry="20.5"/><path d="M626.14,643.11l-1.09,2.1c-.31.67-.8,1.48-1.33,2.41s-1.19,2-1.9,3.1a53.73,53.73,0,0,1-6,7.48,58.78,58.78,0,0,1-9.18,7.75,100.27,100.27,0,0,1-20.75,10.65c-5.8,2.23-9.63,3.32-9.63,3.32s.9.05,2.59,0a55.89,55.89,0,0,0,7.29-.83,65.78,65.78,0,0,0,11-3,57.67,57.67,0,0,0,12.93-6.62,42.58,42.58,0,0,0,10.1-9.63,31.25,31.25,0,0,0,4.63-8.83,23,23,0,0,0,.85-3.36,16.4,16.4,0,0,0,.34-2.48C626.13,643.83,626.14,643.11,626.14,643.11Z"/><rect class="cls-9" x="535.64" y="676.89" width="29.82" height="30.03" rx="7.81" ry="7.81" transform="translate(1425.02 561.07) rotate(120)"/><rect class="cls-10" x="636.08" y="422.19" width="43.86" height="43.86" rx="7.81" ry="7.81" transform="translate(1021.17 -261.81) rotate(83.21)"/><path class="cls-6" d="M678.66,411.89A126.76,126.76,0,0,0,722,358.09a127,127,0,0,0-43.38,53.8Z"/></svg>
